<svg width="145" height="26" viewBox="0 0 145 26" fill="none" xmlns="http://www.w3.org/2000/svg">
<path d="M145 24.1435C144.923 24.2774 144.84 24.4114 144.766 24.548C144.404 25.2177 143.862 25.6115 143.096 25.4615C142.303 25.3061 141.832 24.7677 141.817 23.9426C141.782 22.2682 141.795 20.5939 141.779 18.9222C141.763 17.4139 141.811 15.8977 141.694 14.3974C141.543 12.4927 139.923 11.0916 138.144 11.1773C136.13 11.2738 134.45 12.8704 134.431 14.7779C134.404 17.7327 134.431 20.6876 134.415 23.6425C134.41 24.6632 133.827 25.4079 133 25.483C132.231 25.5526 131.66 25.1802 131.394 24.4649C131.263 24.1113 131.282 23.6907 131.282 23.3023C131.274 19.3615 131.277 15.4235 131.277 11.4827C131.277 8.75824 131.314 6.03107 131.258 3.30925C131.237 2.27249 131.532 1.52774 132.473 1.08304H133.255C134.16 1.61615 134.473 2.40644 134.436 3.45659C134.375 5.09343 134.42 6.73295 134.42 8.37247C134.42 8.83861 134.42 9.30475 134.42 9.77089C135.29 9.35565 135.995 8.93773 136.75 8.67787C140.391 7.42948 143.854 9.2217 144.71 12.7606C144.817 13.2026 144.902 13.6473 144.997 14.092V24.1462L145 24.1435Z" fill="#006699"/>
<path d="M85.9016 9.88343C89.2208 7.5822 92.3032 7.81259 94.657 10.5237C94.774 10.438 94.9096 10.363 95.0107 10.2558C96.9841 8.20372 99.3857 7.88225 101.936 8.72344C104.426 9.5432 105.423 11.5792 105.497 14.0599C105.59 17.2425 105.569 20.4305 105.556 23.6131C105.551 24.7864 104.904 25.4991 103.989 25.5017C103.093 25.5017 102.418 24.7623 102.407 23.6157C102.375 20.8912 102.402 18.1641 102.388 15.4396C102.386 14.8529 102.388 14.2448 102.253 13.6795C101.896 12.1954 100.668 11.2122 99.2421 11.1747C97.7873 11.1372 96.2687 12.2704 95.9016 13.7277C95.766 14.2608 95.7234 14.8315 95.7208 15.3833C95.7022 18.0757 95.7181 20.768 95.7101 23.463C95.7075 24.7784 95.1064 25.5339 94.1197 25.5017C93.1969 25.4723 92.5745 24.682 92.5718 23.4791C92.5612 20.5242 92.5798 17.5667 92.5559 14.6118C92.5426 13.1116 91.5905 11.7962 90.2873 11.3676C88.9336 10.9202 87.407 11.3247 86.649 12.5329C86.2367 13.1893 85.9495 14.0385 85.9282 14.8127C85.8431 17.6015 85.8937 20.3956 85.8937 23.1871C85.8937 23.4496 85.9096 23.7149 85.875 23.9747C85.7527 24.8775 85.0346 25.5419 84.2447 25.5071C83.4043 25.4696 82.8139 24.8186 82.758 23.8622C82.7474 23.6988 82.75 23.5327 82.75 23.3693C82.75 19.1339 82.7607 14.8957 82.7421 10.6603C82.7367 9.72805 82.9043 8.919 83.9016 8.64307C84.9096 8.36446 85.4734 8.99133 85.9043 9.89146L85.9016 9.88343Z" fill="#006699"/>
<path d="M57.4521 18.2444C56.5399 18.2444 55.6276 18.2605 54.7154 18.2391C53.7101 18.2149 53.0585 17.655 53.0239 16.838C52.9893 15.9941 53.6702 15.3217 54.7021 15.2949C56.1675 15.2547 57.6356 15.2708 59.101 15.2842C60.0425 15.2922 60.8909 15.1208 61.2207 14.0974C61.4867 13.2696 60.9521 12.3775 59.851 11.8712C57.883 10.9657 55.9149 10.9603 54.1064 12.2543C52.2872 13.5562 51.6569 15.4771 51.9095 17.6175C52.367 21.5235 55.625 23.6586 59.1143 22.37C59.8484 22.0994 60.5159 21.5636 61.125 21.0439C62.0159 20.2831 62.7739 20.1786 63.4282 20.8698C64.0372 21.5154 63.9175 22.4236 63.1197 23.2058C58.5558 27.6877 50.6622 25.4615 48.9548 19.2142C47.976 15.6405 49.4122 11.8122 52.5053 9.73873C55.5798 7.67594 59.6782 7.82328 62.5452 10.0977C64.226 11.4292 64.875 13.35 64.2845 15.2413C63.7367 16.9987 62.0346 18.164 59.8936 18.223C59.0798 18.2444 58.2633 18.2257 57.4494 18.2257C57.4494 18.231 57.4494 18.2364 57.4494 18.2417L57.4521 18.2444Z" fill="#118D92"/>
<path d="M8.742 25.5526C5.70477 25.5392 2.31115 22.9326 1.30051 19.2249C0.279233 15.4771 1.90689 11.4667 5.25264 9.47889C8.49998 7.55004 12.7659 8.03493 15.4681 10.6389C16.2553 11.397 16.3963 12.3507 15.8165 12.983C15.1569 13.7036 14.2792 13.6527 13.4255 12.8437C11.6622 11.172 9.17817 10.7728 7.11168 11.8257C5.14625 12.8249 3.92817 15.2815 4.23402 17.6202C4.74732 21.5315 8.06913 23.7122 11.5505 22.3459C12.3085 22.0485 12.9627 21.4458 13.6117 20.9153C14.351 20.3099 15.1649 20.184 15.7207 20.6957C16.3111 21.2395 16.3218 22.3245 15.6675 22.9996C13.992 24.7275 11.9415 25.5821 8.742 25.5553V25.5526Z" fill="#118D92"/>
<path d="M73.7234 25.566C70.9176 25.5338 68.9203 24.6685 67.7873 22.3352C67.2527 21.2341 67.7713 20.1572 68.8591 20.184C69.3086 20.1947 69.8883 20.5671 70.1676 20.9502C71.3112 22.5147 73.2846 23.1389 75.008 22.3539C75.7607 22.011 76.3085 21.4806 76.3883 20.5939C76.4708 19.675 76.0692 18.9677 75.2926 18.5605C74.6091 18.2042 73.8511 17.9846 73.1171 17.7274C72.657 17.5666 72.1782 17.4675 71.7181 17.3041C69.5027 16.5192 68.5665 15.3565 68.5346 13.1276C68.508 11.1238 69.5426 9.72534 71.3112 8.87076C73.516 7.80453 76.3883 8.27335 78.0107 9.95573C78.75 10.7219 78.8378 11.4077 78.2766 12.0266C77.7101 12.6534 77.008 12.699 76.1995 12.0266C75.3112 11.2899 74.3086 11.1988 73.2527 11.3274C72.4362 11.4265 71.8644 11.8658 71.7288 12.7392C71.5958 13.5884 72.1064 14.0385 72.7846 14.293C73.633 14.6118 74.524 14.8154 75.383 15.11C77.625 15.8789 79.2979 17.2211 79.6091 19.75C79.9229 22.3084 78.2022 24.6043 75.4974 25.2901C74.8085 25.4642 74.0905 25.5097 73.7181 25.566H73.7234Z" fill="#006699"/>
<path d="M119.263 11.6087C118.032 11.3274 116.048 12.107 116.136 9.95308C116.213 8.06709 118 8.72344 119.34 8.50644C119.34 7.36789 119.322 6.20254 119.346 5.03988C119.364 4.20672 119.838 3.68432 120.63 3.53966C121.394 3.40036 121.979 3.75666 122.271 4.46658C122.418 4.81752 122.455 5.23008 122.465 5.61585C122.492 6.56152 122.473 7.50719 122.473 8.57342C123.771 8.57342 124.997 8.56806 126.223 8.57342C127.37 8.58145 128.032 9.11724 128.043 10.0308C128.053 10.9577 127.399 11.5176 126.266 11.5283C125.037 11.539 123.809 11.5283 122.471 11.5283C122.471 13.65 122.471 15.6726 122.471 17.6979C122.471 18.5177 122.455 19.3401 122.487 20.1572C122.561 22.0378 124.021 23.1389 125.838 22.6969C126.152 22.6192 126.449 22.4718 126.763 22.3888C127.484 22.1986 128.173 22.2334 128.5 23.0264C128.816 23.8006 128.566 24.5587 127.832 24.8641C126.888 25.2526 125.856 25.6089 124.856 25.6357C121.678 25.7187 119.431 23.4952 119.351 20.2751C119.287 17.6524 119.33 15.027 119.319 12.4016C119.319 12.1471 119.282 11.89 119.261 11.606L119.263 11.6087Z" fill="#006699"/>
<path d="M113.12 17.0175C113.12 19.2142 113.128 21.411 113.117 23.6077C113.112 24.7677 112.505 25.491 111.58 25.5017C110.683 25.5124 109.989 24.7355 109.987 23.6372C109.973 19.2437 109.973 14.8502 109.987 10.454C109.989 9.31549 110.63 8.58413 111.556 8.57877C112.508 8.57074 113.112 9.25923 113.117 10.4273C113.13 12.624 113.12 14.8207 113.12 17.0175Z" fill="#006699"/>
<path d="M109.763 3.63072C109.785 2.62879 110.588 1.85457 111.596 1.86797C112.582 1.88136 113.394 2.7038 113.391 3.68698C113.386 4.73713 112.548 5.5301 111.492 5.48991C110.468 5.44973 109.742 4.67015 109.766 3.63072H109.763Z" fill="#006699"/>
<path d="M41.4176 3.29587C42.4229 3.29051 43.2235 4.05669 43.2527 5.05326C43.282 6.06055 42.4469 6.8937 41.4203 6.88566C40.4256 6.87763 39.6144 6.07126 39.6171 5.09076C39.6171 4.10759 40.4309 3.30122 41.4176 3.29587Z" fill="#006699"/>
<path d="M29.4096 24.6096C26.2713 26.0268 23.3085 25.5473 20.7154 23.3719C18.0027 21.0948 17.0745 18.0837 17.9229 14.6252C18.7926 11.0702 22.2952 7.72685 27.4415 8.31354C31.1968 8.74217 34.5027 12.1846 34.5878 16.0959C34.6942 20.993 34.641 18.9838 34.6357 23.8836C34.6357 24.9364 34.0293 25.5499 33.1064 25.5499C32.1915 25.5499 31.5851 24.9445 31.5692 23.8836L31.5532 23.2487C30.7713 23.7524 30.1357 24.2801 29.4096 24.6069V24.6096ZM26.1224 22.4638C29.2447 22.4959 31.5532 20.0741 31.5373 16.779C31.5213 13.4518 29.3484 11.1372 26.2181 11.113C23.0027 11.0889 20.8511 13.3446 20.8351 16.7603C20.8192 20.0581 23.0186 22.4343 26.1197 22.4638H26.1224Z" fill="#118D92"/>
<path d="M45.375 9.64765C48.7926 6.42755 52.758 4.23349 55.1729 3.48874L55.8458 3.28246C56.0931 3.20745 56.2341 2.94223 56.1569 2.69041L55.7447 1.33218C55.6676 1.08304 55.4069 0.941053 55.1569 1.01874L54.4841 1.2277C50.8192 2.35822 45.2447 5.81943 41.4495 10.3897C40.8085 11.1693 40.2128 12.0212 39.9468 12.4097C39.9282 12.4364 39.9123 12.4632 39.891 12.49C38.3032 14.9198 37.2873 17.5827 37.3165 20.3206C37.3458 23.1094 39.0399 25.9946 41.8272 25.9946C43.1809 25.9946 44.3484 25.499 45.2022 24.5614C46.2819 23.3773 46.7553 21.6011 46.5692 19.4232C46.375 17.1407 44.9655 14.6894 43.2447 12.4873C43.1064 12.3105 43.1064 12.0614 43.25 11.8899C43.9468 11.0541 44.6809 10.2986 45.3777 9.6423L45.375 9.64765ZM44.2261 19.6321C44.3511 21.1082 44.0825 22.2923 43.4681 22.9674C43.0639 23.4094 42.5133 23.6345 41.8245 23.6345C40.4362 23.6345 39.6756 21.6976 39.6623 20.3019C39.6436 18.3489 40.274 16.487 41.2155 14.8073C41.383 14.51 41.8032 14.4858 42.0053 14.7645C43.2101 16.4361 44.0984 18.1426 44.2261 19.6348V19.6321ZM39.1995 11.4345C39.516 10.9764 40.0639 10.2156 40.6383 9.53514C38.4335 7.26339 36.4149 5.67209 36.2341 5.53278L35.6782 5.09879C35.4734 4.93805 35.1782 4.97556 35.0186 5.18184L34.1569 6.30164C33.9974 6.50792 34.0346 6.80528 34.2394 6.96602L34.7952 7.40001C35.8165 8.20102 37.5213 9.6798 39.2022 11.4372L39.1995 11.4345Z" fill="#118D92"/>
<path d="M39.8883 12.4954C39.8883 12.4954 40.8404 11.0568 41.7527 10.0307L39.8883 12.4954Z" fill="#006699"/>
</svg>
